<svg width="48" height="48" viewBox="0 0 48 48" fill="none" xmlns="http://www.w3.org/2000/svg">
<path d="M17 36V14H25.8394C26.0474 14 26.3148 14.0102 26.6416 14.0306C26.9684 14.0407 27.2705 14.0713 27.5478 14.1222C28.7858 14.3157 29.8059 14.7384 30.6082 15.3903C31.4203 16.0421 32.0195 16.8671 32.4058 17.8653C32.8019 18.8532 33 19.9532 33 21.1653C33 22.3671 32.8019 23.4671 32.4058 24.4653C32.0096 25.4532 31.4054 26.2731 30.5933 26.925C29.7911 27.5769 28.7759 27.9995 27.5478 28.1931C27.2705 28.2338 26.9635 28.2644 26.6267 28.2847C26.2999 28.3051 26.0375 28.3153 25.8394 28.3153H20.5803V36H17ZM20.5803 24.8778H25.6908C25.8889 24.8778 26.1117 24.8676 26.3593 24.8472C26.6069 24.8269 26.8347 24.7861 27.0427 24.725C27.637 24.5722 28.1024 24.3023 28.4392 23.9153C28.7858 23.5282 29.0285 23.0903 29.1671 22.6014C29.3157 22.1125 29.39 21.6338 29.39 21.1653C29.39 20.6968 29.3157 20.2181 29.1671 19.7292C29.0285 19.2301 28.7858 18.787 28.4392 18.4C28.1024 18.013 27.637 17.7431 27.0427 17.5903C26.8347 17.5292 26.6069 17.4935 26.3593 17.4833C26.1117 17.463 25.8889 17.4528 25.6908 17.4528H20.5803V24.8778Z" fill="white"/>
<mask id="path-2-inside-1_289_86" fill="white">
<path fill-rule="evenodd" clip-rule="evenodd" d="M0 14.747L10.4656 0H48V32.438L36.956 48H0V14.747Z"/>
</mask>
<path d="M0 14.747L-0.815507 14.1682L-1 14.4282V14.747H0ZM10.4656 0V-1H9.94905L9.6501 -0.578747L10.4656 0ZM48 0H49V-1H48V0ZM48 32.438L48.8155 33.0168L49 32.7568V32.438H48ZM36.956 48V49H37.4726L37.7715 48.5787L36.956 48ZM0 48H-1V49H0V48ZM0.815507 15.3257L11.2811 0.578747L9.6501 -0.578747L-0.815507 14.1682L0.815507 15.3257ZM48 -1H10.4656V1H48V-1ZM49 32.438V0H47V32.438H49ZM37.7715 48.5787L48.8155 33.0168L47.1845 31.8593L36.1405 47.4213L37.7715 48.5787ZM0 49H36.956V47H0V49ZM-1 14.747V48H1V14.747H-1Z" fill="white" mask="url(#path-2-inside-1_289_86)"/>
</svg>
