<svg width="34" height="34" viewBox="0 0 34 34" fill="none" xmlns="http://www.w3.org/2000/svg">
<path fill-rule="evenodd" clip-rule="evenodd" d="M0 10.4459L7.41319 0H34V22.9766L26.177 34H0V10.4459Z" fill="#DC9877"/>
<path d="M17 17C17.55 17 18.021 16.804 18.413 16.412C18.805 16.02 19.0007 15.5493 19 15C19 14.45 18.804 13.979 18.412 13.587C18.02 13.195 17.5493 12.9993 17 13C16.45 13 15.979 13.196 15.587 13.588C15.195 13.98 14.9993 14.4507 15 15C15 15.55 15.196 16.021 15.588 16.413C15.98 16.805 16.4507 17.0007 17 17ZM17 27C14.3167 24.7167 12.3127 22.596 10.988 20.638C9.66333 18.68 9.00067 16.8673 9 15.2C9 12.7 9.80433 10.7083 11.413 9.225C13.0217 7.74167 14.884 7 17 7C19.1167 7 20.9793 7.74167 22.588 9.225C24.1967 10.7083 25.0007 12.7 25 15.2C25 16.8667 24.3373 18.6793 23.012 20.638C21.6867 22.5967 19.6827 24.7173 17 27Z" fill="white"/>
</svg>
