<svg width="48" height="48" viewBox="0 0 48 48" fill="none" xmlns="http://www.w3.org/2000/svg">
<mask id="path-1-inside-1_289_87" fill="white">
<path fill-rule="evenodd" clip-rule="evenodd" d="M0 14.747L10.4656 0H48V32.438L36.956 48H0V14.747Z"/>
</mask>
<path d="M0 14.747L-0.815507 14.1682L-1 14.4282V14.747H0ZM10.4656 0V-1H9.94905L9.6501 -0.578747L10.4656 0ZM48 0H49V-1H48V0ZM48 32.438L48.8155 33.0168L49 32.7568V32.438H48ZM36.956 48V49H37.4726L37.7715 48.5787L36.956 48ZM0 48H-1V49H0V48ZM0.815507 15.3257L11.2811 0.578747L9.6501 -0.578747L-0.815507 14.1682L0.815507 15.3257ZM48 -1H10.4656V1H48V-1ZM49 32.438V0H47V32.438H49ZM37.7715 48.5787L48.8155 33.0168L47.1845 31.8593L36.1405 47.4213L37.7715 48.5787ZM0 49H36.956V47H0V49ZM-1 14.747V48H1V14.747H-1Z" fill="white" mask="url(#path-1-inside-1_289_87)"/>
<path fill-rule="evenodd" clip-rule="evenodd" d="M29 16H32V32H29V16ZM37 19H34V29H37V25H38V23H37V19ZM19 32H16V16H19V32ZM11 29H14V19H11V23H10V25H11V29ZM27 25H21V23H27V25Z" fill="white"/>
</svg>
