<svg width="48" height="48" viewBox="0 0 48 48" fill="none" xmlns="http://www.w3.org/2000/svg">
<path d="M34 24L33 29H30L31 24H34ZM15 29H18L17 24H14L15 29ZM29 19C29 17.9 28.1 17 27 17H21C19.9 17 19 17.9 19 19V23L20 27H28L29 23V19ZM18 29V31H23V32L19 36H22L24 34L26 36H29L25 32V31H30V29H18Z" fill="white"/>
<mask id="path-2-inside-1_289_85" fill="white">
<path fill-rule="evenodd" clip-rule="evenodd" d="M0 14.747L10.4656 0H48V32.438L36.956 48H0V14.747Z"/>
</mask>
<path d="M0 14.747L-0.815507 14.1682L-1 14.4282V14.747H0ZM10.4656 0V-1H9.94905L9.6501 -0.578747L10.4656 0ZM48 0H49V-1H48V0ZM48 32.438L48.8155 33.0168L49 32.7568V32.438H48ZM36.956 48V49H37.4726L37.7715 48.5787L36.956 48ZM0 48H-1V49H0V48ZM0.815507 15.3257L11.2811 0.578747L9.6501 -0.578747L-0.815507 14.1682L0.815507 15.3257ZM48 -1H10.4656V1H48V-1ZM49 32.438V0H47V32.438H49ZM37.7715 48.5787L48.8155 33.0168L47.1845 31.8593L36.1405 47.4213L37.7715 48.5787ZM0 49H36.956V47H0V49ZM-1 14.747V48H1V14.747H-1Z" fill="white" mask="url(#path-2-inside-1_289_85)"/>
</svg>
