<svg width="48" height="48" viewBox="0 0 48 48" fill="none" xmlns="http://www.w3.org/2000/svg">
<path fill-rule="evenodd" clip-rule="evenodd" d="M0 14.747L10.4656 0H48V32.438L36.956 48H0V14.747Z" fill="#DC9877"/>
<path fill-rule="evenodd" clip-rule="evenodd" d="M24.0001 12L35 17.8997V20L24.0001 14.3482L13 20V17.8997L24.0001 12Z" fill="white"/>
<path d="M17 36H16L15.35 34H14V27H16V23H32V27H34V34H32.65L32 36H31L30.35 34H17.65L17 36ZM25 27H30V25H25V27ZM18 27H23V25H18V27ZM16 32H32V29H16V32Z" fill="white"/>
</svg>
