<svg width="48" height="48" viewBox="0 0 48 48" fill="none" xmlns="http://www.w3.org/2000/svg">
<path fill-rule="evenodd" clip-rule="evenodd" d="M0 14.747L10.4656 0H48V32.438L36.956 48H0V14.747Z" fill="#DC9877"/>
<path d="M18.9514 23.0262L15.0437 23.5711C14.1365 23.7073 13.7178 24.4565 14.2063 25.2056C15.8113 27.9299 18.6025 30.7903 21.4636 32.7654C22.2312 33.2421 23.1383 32.9697 23.557 32.1525L24.8131 29.5644C25.162 28.7471 25.0224 27.5894 24.3944 26.9083L21.6729 23.9116C21.0449 23.2987 19.7888 22.89 18.9514 23.0262Z" fill="white"/>
<path d="M29.7654 22.9378L28.1708 26.512C27.8519 27.3063 27.9795 28.4315 28.5535 29.0933L30.6584 31.5423C31.2324 32.2042 32.0616 32.138 32.4443 31.4099C33.7837 28.961 34.6767 25.5192 34.9956 22.3422C35.0594 21.4817 34.4216 20.886 33.5924 21.0184L31.934 21.2831C31.1049 21.4817 30.1481 22.2098 29.7654 22.9378Z" fill="white"/>
<path d="M23.2997 23.7144L25.1332 25.6378C25.6833 26.2035 26.3555 26.0904 26.6611 25.4115L27.8834 23.0356C28.189 22.3567 27.8834 21.9042 27.0889 22.0173L23.7276 22.4699C22.9942 22.6396 22.7497 23.1487 23.2997 23.7144Z" fill="white"/>
<path d="M14.4488 17.3877C13.6731 18.197 13.156 19.0738 13.0268 19.9506C12.9621 20.2878 13.0268 20.6925 13.0914 21.0972C13.2207 21.7042 14.061 22.1089 14.8366 21.974L18.1977 21.4344C19.0379 21.2996 19.2319 20.6925 18.7148 20.018L16.6464 17.59C16.0647 16.9155 15.0305 16.7806 14.4488 17.3877Z" fill="white"/>
<path d="M26.1024 30.5986L25.1282 32.7039C24.8237 33.447 25.0673 34.3138 25.798 34.6234C26.894 34.995 27.8682 35.1188 28.7206 34.8711C29.0251 34.7473 29.3904 34.6235 29.6948 34.3758C30.182 34.0043 30.0602 33.1374 29.5122 32.5182L27.6246 30.351C27.1375 29.7937 26.4069 29.9175 26.1024 30.5986Z" fill="white"/>
<path d="M22.8951 20.9752L27.2232 20.3235C28.027 20.1932 28.9544 19.4764 29.2636 18.6944L30.8712 15.1103C31.1803 14.3283 30.933 13.416 30.1292 13.2205C27.0995 12.5036 22.1531 13.6115 18.6288 15.4361C17.8868 15.8271 17.825 16.6743 18.3196 17.3259L20.5455 19.9977C21.0402 20.7145 22.0913 21.1055 22.8951 20.9752Z" fill="white"/>
<path d="M33.6286 15C33.2725 15 32.9876 15.1277 32.6315 15.8939L31.1359 18.8311C30.7797 19.5973 31.1359 20.1081 32.0617 19.9804L33.4862 19.7889C34.412 19.6612 35.1242 18.895 34.9818 18.0649C34.7681 16.5324 33.9847 15 33.6286 15Z" fill="white"/>
</svg>
