<svg width="48" height="48" viewBox="0 0 48 48" fill="none" xmlns="http://www.w3.org/2000/svg">
<path fill-rule="evenodd" clip-rule="evenodd" d="M0 14.747L10.4656 0H48V32.438L36.956 48H0V14.747Z" fill="#DC9877"/>
<path fill-rule="evenodd" clip-rule="evenodd" d="M18 15V14L32 12V14V16V18V29C32 30.6569 30.6569 32 29 32C27.3431 32 26 30.6569 26 29C26 27.3431 27.3431 26 29 26C29.3506 26 29.6872 26.0602 30 26.1707V18.2857L20 19.7143V31C20 32.6569 18.6569 34 17 34C15.3431 34 14 32.6569 14 31C14 29.3431 15.3431 28 17 28C17.3506 28 17.6872 28.0602 18 28.1707V20V18V16V15ZM30 29C30 28.4477 29.5523 28 29 28C28.4477 28 28 28.4477 28 29C28 29.5523 28.4477 30 29 30C29.5523 30 30 29.5523 30 29ZM17 30C17.5523 30 18 30.4477 18 31C18 31.5523 17.5523 32 17 32C16.4477 32 16 31.5523 16 31C16 30.4477 16.4477 30 17 30ZM20 17.7143L30 16.2857V14.2857L20 15.7143V17.7143Z" fill="white"/>
</svg>
