<svg width="48" height="48" viewBox="0 0 48 48" fill="none" xmlns="http://www.w3.org/2000/svg">
<path fill-rule="evenodd" clip-rule="evenodd" d="M0 14.747L10.4656 0H48V32.438L36.956 48H0V14.747Z" fill="#DC9877"/>
<path fill-rule="evenodd" clip-rule="evenodd" d="M15.0003 21C15.0003 15.9688 18.9552 12 24.0002 12C29.0451 12 33.0002 15.9688 33.0002 21L33.0001 36H15L15.0003 21ZM17.0002 24L17.0002 34H23.0002V24H17.0002ZM23.0002 22H17.0002L17.0003 21C17.0003 17.2829 19.6611 14.6253 23.0002 14.0811V22ZM25.0002 24V34H31.0001V24H25.0002ZM31.0001 22H25.0002V14.0811C28.3392 14.6253 31.0002 17.2829 31.0002 21L31.0001 22Z" fill="white"/>
</svg>
