<svg width="48" height="48" viewBox="0 0 48 48" fill="none" xmlns="http://www.w3.org/2000/svg">
<path fill-rule="evenodd" clip-rule="evenodd" d="M0 14.747L10.4656 0H48V32.438L36.956 48H0V14.747Z" fill="#DC9877"/>
<path fill-rule="evenodd" clip-rule="evenodd" d="M14.0003 11.0022L14 31.0032H23V35H25V31.0032H34V11L26.3037 11.0012H24.8868C20.6915 11.002 16.2736 11.0029 14.0003 11.0022ZM32.0004 29.0032H16V13.0032H32.0004V29.0032ZM23 26H21V16H25C26.1046 16 27 16.8955 27 18V21C27 22.1045 26.1046 23 25 23H23V26ZM24 21H23V18H24C24.5523 18 25 18.4478 25 19V20C25 20.5522 24.5523 21 24 21Z" fill="white"/>
</svg>
