<svg width="48" height="48" viewBox="0 0 48 48" fill="none" xmlns="http://www.w3.org/2000/svg">
<path fill-rule="evenodd" clip-rule="evenodd" d="M13.0858 29L13.9906 29.5746C17.3719 31.7218 20.7038 32.7662 24 32.7662C27.2962 32.7662 30.6281 31.7218 34.0094 29.5746L34.9142 29L36 30.9155L35.0951 31.4901C31.4412 33.8105 27.7384 35 24 35C20.2616 35 16.5588 33.8105 12.9049 31.4901L12 30.9155L13.0858 29Z" fill="white"/>
<path fill-rule="evenodd" clip-rule="evenodd" d="M31 12L34 18L32 20.0617L30 18.5L29 20L31.5654 28.7201C30.5 29.5 29.5 30 27.6849 30.5586L25.6615 25.5H22.3385L20.3151 30.5587C18.5 30 17.5 29.5 16.4375 28.7077L19 21C18.5 21.5 17.5 22.5 16.9999 23.9999L15 22C16 20.5 16.7079 19.6083 17.5 19C18.2921 18.3917 19.0717 18 20 18H23.5C24 16.5 24.6458 15.4593 25.5 14.5C26.9557 12.8652 28.8993 12.0906 31 12Z" fill="white"/>
<mask id="path-3-inside-1_289_84" fill="white">
<path fill-rule="evenodd" clip-rule="evenodd" d="M0 14.747L10.4656 0H48V32.438L36.956 48H0V14.747Z"/>
</mask>
<path d="M0 14.747L-0.815507 14.1682L-1 14.4282V14.747H0ZM10.4656 0V-1H9.94905L9.6501 -0.578747L10.4656 0ZM48 0H49V-1H48V0ZM48 32.438L48.8155 33.0168L49 32.7568V32.438H48ZM36.956 48V49H37.4726L37.7715 48.5787L36.956 48ZM0 48H-1V49H0V48ZM0.815507 15.3257L11.2811 0.578747L9.6501 -0.578747L-0.815507 14.1682L0.815507 15.3257ZM48 -1H10.4656V1H48V-1ZM49 32.438V0H47V32.438H49ZM37.7715 48.5787L48.8155 33.0168L47.1845 31.8593L36.1405 47.4213L37.7715 48.5787ZM0 49H36.956V47H0V49ZM-1 14.747V48H1V14.747H-1Z" fill="white" mask="url(#path-3-inside-1_289_84)"/>
</svg>
