<svg width="34" height="34" viewBox="0 0 34 34" fill="none" xmlns="http://www.w3.org/2000/svg">
<path fill-rule="evenodd" clip-rule="evenodd" d="M0 10.4459L7.41319 0H34V22.9766L26.177 34H0V10.4459Z" fill="#DC9877"/>
<path d="M11 12H23C23.2652 12 23.5196 12.1054 23.7071 12.2929C23.8946 12.4804 24 12.7348 24 13C24 13.2652 23.8946 13.5196 23.7071 13.7071C23.5196 13.8946 23.2652 14 23 14H11C10.7348 14 10.4804 13.8946 10.2929 13.7071C10.1054 13.5196 10 13.2652 10 13C10 12.7348 10.1054 12.4804 10.2929 12.2929C10.4804 12.1054 10.7348 12 11 12ZM25 9V11H9V9H25ZM20 15H22V25H20V15ZM12 15H14V25H12V15ZM16 15H18V25H16V15Z" fill="white"/>
</svg>
