<svg width="34" height="34" viewBox="0 0 34 34" fill="none" xmlns="http://www.w3.org/2000/svg">
<path fill-rule="evenodd" clip-rule="evenodd" d="M0 10.4459L7.41319 0H34V22.9766L26.177 34H0V10.4459Z" fill="#DC9877"/>
<path d="M17.3923 9.0797L24.3915 12.08C24.829 12.2675 25.0727 12.7363 24.9758 13.1988C24.8789 13.6614 24.4727 13.9989 23.9978 13.9989V14.249C23.9978 14.6646 23.6635 14.999 23.2479 14.999H10.7494C10.3338 14.999 9.99945 14.6646 9.99945 14.249V13.9989C9.5245 13.9989 9.11518 13.6645 9.02144 13.1988C8.9277 12.7332 9.17142 12.2644 9.60574 12.08L16.6049 9.0797C16.858 8.97343 17.1424 8.97343 17.3923 9.0797ZM20.9982 15.9991H22.9979V22.1341C23.0167 22.1435 23.0354 22.156 23.0542 22.1685L24.554 23.1686C24.9196 23.4123 25.0852 23.8686 24.9571 24.2906C24.829 24.7125 24.4384 25 23.9978 25H9.99945C9.55887 25 9.17142 24.7125 9.04331 24.2906C8.9152 23.8686 9.07768 23.4123 9.44639 23.1686L10.9462 22.1685C10.965 22.156 10.9837 22.1466 11.0025 22.1341V15.9991H12.9991V21.9997H14.2489V15.9991H16.2487V21.9997H17.7485V15.9991H19.7483V21.9997H20.9982V15.9991ZM16.9986 10.9986C16.7334 10.9986 16.4791 11.104 16.2916 11.2916C16.1041 11.4791 15.9987 11.7335 15.9987 11.9987C15.9987 12.264 16.1041 12.5184 16.2916 12.7059C16.4791 12.8935 16.7334 12.9988 16.9986 12.9988C17.2638 12.9988 17.5181 12.8935 17.7056 12.7059C17.8932 12.5184 17.9985 12.264 17.9985 11.9987C17.9985 11.7335 17.8932 11.4791 17.7056 11.2916C17.5181 11.104 17.2638 10.9986 16.9986 10.9986Z" fill="white"/>
</svg>
