<svg width="48" height="48" viewBox="0 0 48 48" fill="none" xmlns="http://www.w3.org/2000/svg">
<path fill-rule="evenodd" clip-rule="evenodd" d="M0 14.747L10.4656 0H48V32.438L36.956 48H0V14.747Z" fill="#DC9877"/>
<path fill-rule="evenodd" clip-rule="evenodd" d="M25 17.126C24.6804 17.0438 24.3453 17 24 17C23.6547 17 23.3196 17.0438 23 17.126C21.2748 17.5701 20 19.1362 20 21C20 21.8826 20.2859 22.6985 20.7701 23.3601C21.1899 23.9336 21.7587 24.3911 22.4195 24.6756C22.9043 24.8844 23.4387 25 24 25C24.5613 25 25.0957 24.8844 25.5805 24.6756C26.2413 24.3911 26.8101 23.9336 27.2299 23.3601C27.7141 22.6985 28 21.8826 28 21C28 19.1362 26.7252 17.5701 25 17.126ZM28.0735 25.4053C27.5601 25.8803 26.9635 26.2666 26.3081 26.54L30 36L31 32.5L28.0735 25.4053ZM21.6919 26.54C21.0365 26.2666 20.4399 25.8803 19.9265 25.4053L17 32.5L18 36L21.6919 26.54ZM25 12V15.083C24.6748 15.0284 24.3407 15 24 15C23.6593 15 23.3252 15.0284 23 15.083V12H25ZM24 23C25.1046 23 26 22.1046 26 21C26 19.8954 25.1046 19 24 19C22.8954 19 22 19.8954 22 21C22 22.1046 22.8954 23 24 23Z" fill="white"/>
</svg>
