<svg width="48" height="48" viewBox="0 0 48 48" fill="none" xmlns="http://www.w3.org/2000/svg">
<path fill-rule="evenodd" clip-rule="evenodd" d="M0 14.747L10.4656 0H48V32.438L36.956 48H0V14.747Z" fill="#DC9877"/>
<path fill-rule="evenodd" clip-rule="evenodd" d="M19.7507 24.8832C20.8867 23.9066 22.2924 23.0863 23.889 22.3527C25.8604 21.4469 28.0598 20.7008 30.3162 19.9486L29.6837 18.0513C27.4401 18.7991 25.1395 19.5771 23.054 20.5353C21.1877 21.3929 19.4431 22.4166 18.0318 23.739C17.9657 23.6566 17.8945 23.5576 17.821 23.44C17.4159 22.7918 17 21.6673 17 20C17 17.498 19.665 15 23.5 15C27.636 15 31.38 15.3373 34.8313 16.708C34.2301 17.6549 33.5959 18.8878 33.1026 20.3675C32.9985 20.6798 32.8951 21.0053 32.7888 21.3397C32.2998 22.8779 31.7504 24.6062 30.8002 26.1191C29.7181 27.8419 28.2894 29 26 29C21.8552 29 20.297 26.6783 19.9133 25.4177L19.7507 24.8832ZM18.1923 26.5307C19.0235 28.5122 21.3338 31 26 31C31.8325 31 33.6488 25.2576 34.7209 21.8682C34.8193 21.5569 34.9115 21.2654 35 21C35.4786 19.5642 36.1052 18.3979 36.6674 17.5527C37.2797 16.632 37.8155 16.0922 38 16C37.3646 15.647 36.7219 15.3339 36.0721 15.0564C32.1205 13.3688 27.9093 13 23.5 13C19 13 15 16 15 20C15 22.5629 15.8211 24.3047 16.6741 25.2255C14.3061 28.2228 13.0271 32.2235 13.0271 36.052L15.0271 36.052C15.0271 32.6505 16.1647 29.1322 18.1923 26.5307Z" fill="white"/>
</svg>
