<svg width="48" height="48" viewBox="0 0 48 48" fill="none" xmlns="http://www.w3.org/2000/svg">
<path fill-rule="evenodd" clip-rule="evenodd" d="M0 14.747L10.4656 0H48V32.438L36.956 48H0V14.747Z" fill="#DC9877"/>
<path fill-rule="evenodd" clip-rule="evenodd" d="M12 18.6972V19V21V23V25V31V33H14H16H18V31H30V33H32H34H36V31V25V23V21V19V18.5C35.5915 18.1936 35.1866 17.9107 34.7403 17.6597C34.1989 17.3551 33.4025 16.9579 32.3511 16.5637C30.2465 15.7745 27.1279 15 23 15C18.8744 15 16.2159 15.774 14.5528 16.6056C13.7222 17.0209 13.1476 17.4468 12.7685 17.788C12.316 18.1952 12.1845 18.4204 12 18.6972ZM16 31V29H18H30H32V31H34V25L14 25V31H16ZM16 23L14 23V21V19.3744C14.031 19.344 14.0664 19.3106 14.1065 19.2745C14.3524 19.0532 14.7778 18.7291 15.4472 18.3944C16.7841 17.726 19.1256 17 23 17C26.8721 17 29.7535 17.7255 31.6489 18.4363C32.5975 18.7921 33.3011 19.1449 33.7597 19.4028C33.8491 19.4531 33.9292 19.4998 34 19.5422V21V23H32V21V20.5993C31.8229 20.4138 32 20.5 30.6141 19.5877C29.923 19.2774 28.9078 19 27.5 19C26.0922 19 25.077 19.2774 24.3859 19.5877C24.2426 19.6521 24.1142 19.7174 24 19.7812C23.8858 19.7174 23.7574 19.6521 23.6141 19.5877C22.923 19.2774 21.9078 19 20.5 19C19.0922 19 18.077 19.2774 17.3859 19.5877C16.7036 19.8941 16.3402 20.2429 16 20.5993V21V23ZM30 21.5137V23H25V21.5137C25.0588 21.4816 25.127 21.4473 25.205 21.4123C25.6276 21.2226 26.3623 21 27.5 21C28.6377 21 29.3724 21.2226 29.795 21.4123C29.873 21.4473 29.9412 21.4816 30 21.5137ZM23 21.5137V23H18V21.5137C18.0588 21.4816 18.127 21.4473 18.205 21.4123C18.6276 21.2226 19.3623 21 20.5 21C21.6377 21 22.3724 21.2226 22.795 21.4123C22.873 21.4473 22.9412 21.4816 23 21.5137Z" fill="white"/>
</svg>
